<?xml version="1.0" standalone="no"?>
<!DOCTYPE svg PUBLIC "-//W3C//DTD SVG 20010904//EN"
 "http://www.w3.org/TR/2001/REC-SVG-20010904/DTD/svg10.dtd">
<svg version="1.0" xmlns="http://www.w3.org/2000/svg"
 width="256.000000pt" height="256.000000pt" viewBox="0 0 256.000000 256.000000"
 preserveAspectRatio="xMidYMid meet">
<metadata>
Created by potrace 1.11, written by Peter Selinger 2001-2013
</metadata>
<g transform="translate(0.000000,256.000000) scale(0.100000,-0.100000)"
fill="#000000" stroke="none">
<path d="M1000 2358 c-65 -18 -185 -59 -226 -78 -45 -21 -43 -9 -29 -190 l7
-85 -32 -18 c-17 -11 -67 -45 -110 -78 l-78 -59 -93 55 c-51 30 -98 55 -105
55 -21 0 -126 -128 -198 -241 -17 -27 -16 -28 39 -109 31 -46 63 -89 71 -97 9
-9 14 -36 14 -76 1 -34 1 -224 1 -422 1 -331 2 -365 21 -419 44 -134 160 -240
333 -306 33 -12 69 -26 80 -30 25 -10 149 -40 190 -47 17 -2 41 -6 55 -9 147
-25 541 -25 680 0 14 3 42 7 62 10 35 5 143 33 213 55 88 27 212 97 273 155
50 47 88 106 111 172 18 55 19 86 20 477 l0 418 60 82 c90 126 88 113 28 200
-65 94 -144 187 -160 187 -7 0 -54 -25 -104 -55 -51 -30 -95 -55 -99 -55 -4 0
-14 8 -23 18 -20 21 -115 92 -159 118 l-33 19 6 100 c4 55 8 113 10 129 2 25
-3 31 -44 49 -82 37 -255 86 -268 76 -6 -6 -35 -57 -63 -114 -29 -58 -56 -102
-61 -99 -6 3 -60 6 -122 6 l-112 0 -43 88 c-57 119 -68 130 -112 118z"/>
</g>
</svg>
